<svg width="42" height="40" viewBox="0 0 42 40" fill="none" xmlns="http://www.w3.org/2000/svg">
<path d="M36.6334 5.63346L32.1719 9.08691L34.0501 11.5436L38.5116 8.09017L36.6334 5.63346Z" fill="#DA2719"/>
<path d="M34.0384 28.5734L31.8828 30.7876L35.9038 34.7511L38.0594 32.537L34.0384 28.5734Z" fill="#DA2719"/>
<path d="M25.5674 33.8927L22.5312 34.416L23.4816 39.9986L26.5177 39.4753L25.5674 33.8927Z" fill="#DA2719"/>
<path d="M12.7297 32.2902L10.2031 37.3515L12.9558 38.7427L15.4823 33.6814L12.7297 32.2902Z" fill="#DA2719"/>
<path d="M6.41438 24.5821L1.33594 27.0249L2.6645 29.8213L7.74294 27.3785L6.41438 24.5821Z" fill="#DA2719"/>
<path d="M0.866105 12.5789L0 15.5534L5.40182 17.1459L6.26792 14.1714L0.866105 12.5789Z" fill="#DA2719"/>
<path d="M10.1385 1.4898L7.65625 3.3252L10.9894 7.88931L13.4717 6.05392L10.1385 1.4898Z" fill="#DA2719"/>
<path d="M36.3704 18.9563L36.3086 22.0552L41.9364 22.1689L41.9982 19.0699L36.3704 18.9563Z" fill="#DA2719"/>
<path d="M24.2524 21.8845L19.4453 29.9922L22.0907 31.5802L26.8977 23.4726L24.2524 21.8845Z" fill="#DA2719"/>
<path d="M23.1709 17.5118L9.77344 13.2768L8.85023 16.2338L22.2477 20.4688L23.1709 17.5118Z" fill="#DA2719"/>
<path d="M27.5257 19.6997C28.239 17.5282 30.4001 16.1269 32.6628 16.3682L32.8626 16.3898L31.4177 13.4976L31.3408 13.5068C28.3619 13.8224 25.8257 15.8547 24.845 18.6944L24.0703 21.0546L26.7848 21.9578L27.5257 19.7028V19.6997Z" fill="#DA2719"/>
<path d="M23.8969 25.862L16.8516 28.4619L17.9873 31.5781L25.0327 28.9782L23.8969 25.862Z" fill="#DA2719"/>
<path d="M27.5714 26.6411L22.2652 23.4023C20.0211 22.032 19.3048 19.084 20.6636 16.8259L20.7773 16.6372L18.1458 15.0317L18.032 15.2204C15.8309 18.8737 16.9345 23.6343 20.4822 25.9358L25.9789 29.2889L27.5744 26.6411H27.5714Z" fill="#DA2719"/>
<path d="M15.0125 12.8155L12.8828 14.7349L19.92 22.6406L22.0497 20.7213L15.0125 12.8155Z" fill="#DA2719"/>
<path d="M20.7604 8.96257L19.3278 15.8267C18.8605 18.0663 16.8684 19.6996 14.5935 19.715H14.3906L16.1491 22.4279L16.2229 22.4124C19.1464 21.7628 21.4429 19.4583 22.1008 16.5289L23.558 9.55649L20.7604 8.96566V8.96257Z" fill="#DA2719"/>
<path d="M26.2824 12.7484L24.2891 30.1103L27.1292 30.4404L29.1226 13.0785L26.2824 12.7484Z" fill="#DA2719"/>
<path d="M12.7691 25.8529L18.3242 30.8647L20.3806 28.557L14.8254 23.5452L12.7691 25.8529Z" fill="#DA2719"/>
<path d="M9.46484 22.6197L14.359 19.2819C16.5356 17.7971 17.1012 14.8213 15.6287 12.6343L15.5057 12.4518L18.0542 10.7134L18.1772 10.8959C20.5597 14.4347 19.6958 19.2448 16.2681 21.7226L11.1926 25.184L9.46484 22.6197Z" fill="#DA2719"/>
<path d="M31.6379 20.309L25.0498 19.5883C22.4367 19.3037 20.0911 21.203 19.8052 23.8323L19.4916 26.7308L16.4297 26.3967L16.7433 23.4951C17.2013 19.2449 20.9519 16.1423 25.1605 16.4825L31.9668 17.2249L31.6348 20.3059L31.6379 20.309Z" fill="#DA2719"/>
<path d="M28.4183 16.6867L28.4583 16.6032L16.9115 8.24187L15.2422 10.5773L24.3788 17.194C22.691 18.5056 20.2839 18.6107 18.467 17.2961L18.3779 17.2311L16.684 19.6006L16.7731 19.6656C20.2839 22.2083 25.1965 21.4009 27.7235 17.8683C27.9848 17.5033 28.2185 17.1043 28.4214 16.6867H28.4183Z" fill="#DA2719"/>
<path d="M12.7791 17.1044L10.4023 17.7983L11.0919 20.1898L13.4687 19.496L12.7791 17.1044Z" fill="#DA2719"/>
<path d="M25.0808 8.81518L23.9297 11.0195L26.1204 12.1778L27.2715 9.97347L25.0808 8.81518Z" fill="#DA2719"/>
<path d="M22.4853 -2.01698e-06L22.1172 5.65178L25.191 5.8545L25.5591 0.202717L22.4853 -2.01698e-06Z" fill="#DA2719"/>
<path d="M18.9609 23.1208L28.5218 23.4085C28.2113 24.3488 27.6333 25.1593 26.8801 25.7563L29.7515 27.0308C30.9012 25.7006 31.6206 23.9776 31.679 22.0814C31.6913 21.6298 31.6667 21.1658 31.5991 20.708L31.5868 20.6152L19.0501 20.2378L18.964 23.1208H18.9609Z" fill="#DA2719"/>
</svg>
